<?xml version="1.0"?>
<svg xmlns="http://www.w3.org/2000/svg" width="512" height="512" viewBox="0 0 128 128"><g><path d="M120.373,52.122a7.635,7.635,0,0,0-7.626,7.626v2.5h-8.39a11.942,11.942,0,0,0-5.35-8.322,7.612,7.612,0,0,1-3.131-7.562,11.944,11.944,0,0,0-2.1-9.665l5.933-5.933,1.767,1.767a7.626,7.626,0,0,0,10.785-10.785l-6.009-6.009A7.626,7.626,0,0,0,95.465,26.523l1.767,1.767L91.3,34.223a11.938,11.938,0,0,0-9.665-2.1,7.166,7.166,0,0,1-4.277-.48,7.062,7.062,0,0,1-3.286-2.652,11.942,11.942,0,0,0-8.322-5.35V15.25h2.5A7.627,7.627,0,1,0,68.248,0h-8.5a7.627,7.627,0,1,0,0,15.253h2.5v8.39a11.942,11.942,0,0,0-8.322,5.35,7.615,7.615,0,0,1-7.562,3.132,11.945,11.945,0,0,0-9.666,2.1L30.768,28.29l1.767-1.767A7.627,7.627,0,1,0,21.749,15.738l-6.008,6.009A7.626,7.626,0,0,0,26.526,32.532l1.767-1.767L34.226,36.7a11.942,11.942,0,0,0-2.1,9.664,7.165,7.165,0,0,1-.479,4.277,7.062,7.062,0,0,1-2.652,3.286,11.942,11.942,0,0,0-5.35,8.322h-8.39v-2.5A7.627,7.627,0,0,0,0,59.748v8.5a7.627,7.627,0,0,0,15.253,0v-2.5h8.39a11.942,11.942,0,0,0,5.35,8.322,7.612,7.612,0,0,1,3.131,7.562,11.947,11.947,0,0,0,2.1,9.666l-5.933,5.932-1.767-1.767a7.627,7.627,0,0,0-10.785,10.786l6.008,6.008a7.627,7.627,0,1,0,10.786-10.785L30.768,99.7,36.7,93.771a11.937,11.937,0,0,0,9.665,2.1,7.15,7.15,0,0,1,4.277.479A7.062,7.062,0,0,1,53.928,99a11.942,11.942,0,0,0,8.322,5.35v8.39h-2.5a7.627,7.627,0,1,0,0,15.253h8.5a7.627,7.627,0,1,0,0-15.253h-2.5v-8.39A11.942,11.942,0,0,0,74.072,99a7.612,7.612,0,0,1,7.562-3.131,11.95,11.95,0,0,0,9.666-2.1L97.232,99.7l-1.767,1.767a7.626,7.626,0,0,0,10.785,10.785l6.009-6.008a7.627,7.627,0,1,0-10.785-10.786l-1.767,1.767L93.774,91.3a11.945,11.945,0,0,0,2.1-9.665,7.165,7.165,0,0,1,.479-4.277,7.062,7.062,0,0,1,2.652-3.286,11.942,11.942,0,0,0,5.35-8.322h8.39v2.5a7.627,7.627,0,0,0,15.253,0v-8.5A7.635,7.635,0,0,0,120.373,52.122ZM97.94,18.213a4.131,4.131,0,0,1,5.836,0l6.008,6.008a4.127,4.127,0,1,1-5.836,5.836l-3-3,0,0,0,0-3-3A4.131,4.131,0,0,1,97.94,18.213ZM27.058,27.051l0,0,0,0-3,3a4.127,4.127,0,0,1-5.836-5.836l6.008-6.008a4.127,4.127,0,0,1,5.836,5.836Zm-15.3,41.195a4.127,4.127,0,0,1-8.253,0v-8.5a4.127,4.127,0,0,1,8.253,0ZM30.06,109.781a4.131,4.131,0,0,1-5.836,0l-6.008-6.008a4.127,4.127,0,0,1,5.836-5.836l3,3,0,0,0,0,3,3A4.131,4.131,0,0,1,30.06,109.781Zm70.882-8.837,0,0,0,0,3-3a4.127,4.127,0,1,1,5.836,5.836l-6.008,6.008a4.127,4.127,0,0,1-5.836-5.836ZM59.752,11.75a4.127,4.127,0,1,1,0-8.253h8.5a4.127,4.127,0,1,1,0,8.253Zm8.5,104.494a4.127,4.127,0,1,1,0,8.253h-8.5a4.127,4.127,0,1,1,0-8.253ZM97.106,71.129a11.111,11.111,0,0,0-4.652,11.237A8.484,8.484,0,0,1,82.368,92.451,11.106,11.106,0,0,0,71.132,97.1a8.483,8.483,0,0,1-14.264,0A10.6,10.6,0,0,0,51.923,93.1a10.943,10.943,0,0,0-4.208-.864,9.906,9.906,0,0,0-2.084.22A8.484,8.484,0,0,1,35.546,82.365a11.107,11.107,0,0,0-4.652-11.236,8.482,8.482,0,0,1,0-14.264,11.111,11.111,0,0,0,4.652-11.237A8.484,8.484,0,0,1,45.632,35.543a11.1,11.1,0,0,0,11.236-4.652,8.482,8.482,0,0,1,14.264,0,11.111,11.111,0,0,0,11.237,4.652A8.484,8.484,0,0,1,92.454,45.629a11.107,11.107,0,0,0,4.652,11.236,8.482,8.482,0,0,1,0,14.264ZM124.5,68.246a4.127,4.127,0,0,1-8.253,0v-8.5a4.127,4.127,0,0,1,8.253,0Z"/><path d="M64,53.875A10.122,10.122,0,1,0,74.122,64,10.133,10.133,0,0,0,64,53.875Zm0,16.744A6.622,6.622,0,1,1,70.622,64,6.63,6.63,0,0,1,64,70.619Z"/><path d="M64,49.414a7.283,7.283,0,1,0-7.283-7.283A7.291,7.291,0,0,0,64,49.414Zm0-11.065a3.783,3.783,0,1,1-3.783,3.782A3.786,3.786,0,0,1,64,38.349Z"/><path d="M64,78.581a7.282,7.282,0,1,0,7.283,7.282A7.29,7.29,0,0,0,64,78.581Zm0,11.064a3.782,3.782,0,1,1,3.783-3.782A3.786,3.786,0,0,1,64,89.645Z"/><path d="M85.866,56.714A7.283,7.283,0,1,0,93.148,64,7.291,7.291,0,0,0,85.866,56.714Zm0,11.066A3.783,3.783,0,1,1,89.648,64,3.787,3.787,0,0,1,85.866,67.78Z"/><path d="M42.134,56.714A7.283,7.283,0,1,0,49.417,64,7.291,7.291,0,0,0,42.134,56.714Zm0,11.066A3.783,3.783,0,1,1,45.917,64,3.786,3.786,0,0,1,42.134,67.78Z"/></g></svg>
