<svg id="Layer_1" enable-background="new 0 0 512 512" height="512" viewBox="0 0 512 512" width="512" xmlns="http://www.w3.org/2000/svg"><g><g><path d="m489.5 237.089h-55.637c4.229-11.215 6.656-23.141 7.1-35.385 1.021-28.107-8.445-55.313-26.656-76.606-2.693-3.148-7.427-3.518-10.574-.825-3.148 2.692-3.518 7.426-.825 10.574 15.758 18.426 23.949 41.976 23.065 66.313-.888 24.461-10.903 47.47-28.2 64.787-.037.037-.073.074-.109.112-.505.527-50.992 53.208-92.341 95.039-2.912 2.946-2.884 7.695.062 10.606 1.462 1.445 3.367 2.166 5.272 2.166 1.934 0 3.868-.744 5.334-2.228 33.468-33.859 72.889-74.788 87.077-89.553h86.432c12.407 0 22.5-10.093 22.5-22.5s-10.093-22.5-22.5-22.5zm0 30h-72.681c3.773-4.742 7.135-9.759 10.066-15h62.615c4.136 0 7.5 3.364 7.5 7.5s-3.364 7.5-7.5 7.5z"/><path d="m282.793 383.693c-15.685 15.551-23.223 22.514-26.823 25.63-17.301-14.87-88.65-88.058-136.286-137.688l52.437-52.436 99.838 99.837c4.25 4.25 9.899 6.591 15.91 6.591s11.661-2.341 15.91-6.59l44.372-44.372c8.773-8.772 8.773-23.047 0-31.819-4.25-4.25-9.9-6.591-15.91-6.591s-11.661 2.341-15.91 6.591l-28.462 28.462-99.838-99.837c-4.25-4.25-9.9-6.591-15.91-6.591s-11.661 2.341-15.91 6.591l-25.539 25.539c-2.929 2.929-2.929 7.678 0 10.606 2.929 2.929 7.678 2.929 10.606 0l25.539-25.539c1.417-1.417 3.299-2.197 5.303-2.197 2.003 0 3.886.78 5.303 2.197l105.142 105.141c2.929 2.929 7.678 2.929 10.606 0l33.766-33.766c1.417-1.417 3.299-2.197 5.303-2.197s3.886.78 5.303 2.197c2.924 2.924 2.924 7.682 0 10.606l-44.373 44.373c-1.416 1.417-3.299 2.196-5.303 2.196s-3.887-.78-5.303-2.197l-105.141-105.141c-2.929-2.929-7.678-2.929-10.606 0l-58.014 58.013c-1.417 1.417-3.3 2.197-5.303 2.197h-81c-4.136 0-7.5-3.365-7.5-7.5 0-4.136 3.364-7.5 7.5-7.5h74.787c1.989 0 3.897-.79 5.303-2.197l16.105-16.105c2.929-2.929 2.929-7.678 0-10.606-2.929-2.929-7.678-2.929-10.606 0l-13.909 13.908h-1.33c-14.187-35.585-5.885-76.911 21.376-104.205 18.229-18.246 42.462-28.294 68.238-28.294h.006c25.772.001 50.001 10.05 68.224 28.293 1.407 1.408 3.316 2.2 5.307 2.2s3.899-.792 5.307-2.2c15.743-15.762 35.74-25.353 57.83-27.734 21.459-2.312 43.296 2.679 61.485 14.06 3.511 2.197 8.139 1.131 10.336-2.379 2.197-3.512 1.132-8.139-2.38-10.336-21.027-13.157-46.257-18.93-71.049-16.257-22.756 2.454-44.34 11.993-61.522 27.068-20.347-17.924-46.189-27.714-73.537-27.715-.003 0-.003 0-.007 0-29.783 0-57.788 11.611-78.851 32.693-30.079 30.115-40.172 75.019-26.735 114.806h-54.378c-12.407 0-22.5 10.093-22.5 22.5s10.093 22.5 22.5 22.5h81c.637 0 1.267-.04 1.895-.092 7.774 8.101 38.5 40.076 69.454 71.712 20.949 21.41 37.901 38.477 50.386 50.727 25.638 25.154 27.139 25.154 30.765 25.154 3.837 0 5.426 0 37.354-31.655 2.942-2.917 2.962-7.665.046-10.606-2.918-2.943-7.667-2.962-10.607-.046z"/></g></g></svg>