<?xml version="1.0"?>
<svg xmlns="http://www.w3.org/2000/svg" viewBox="0 0 512 512" width="512" height="512"><g id="Outline"><path d="M86.912,187.146l-13.824-8.054c-3.043,5.223-5.856,10.644-8.361,16.114l14.546,6.663C81.562,196.873,84.132,191.919,86.912,187.146Z"/><path d="M48,272c0,5.571.253,11.2.753,16.721l15.935-1.442C64.231,282.232,64,277.092,64,272a168.11,168.11,0,0,1,8.685-53.461l-15.172-5.078A184.052,184.052,0,0,0,48,272Z"/><path d="M478.994,364.167A216.678,216.678,0,0,0,459.462,159.61,71.259,71.259,0,0,0,407.32,128.4a72.188,72.188,0,0,0-58.178,20.136,69.524,69.524,0,0,0-18.484,68.648L312,210.4V48a32,32,0,0,0-64,0V60.305A31.976,31.976,0,0,0,200,88V227.251L163.113,247.37a78.458,78.458,0,0,1,8.379-17.573l24.252-12.844-7.488-14.14-6.106,3.234a69.591,69.591,0,0,0-19.292-65.516,72.514,72.514,0,0,0-104.9,3.972l12.086,10.483a56.516,56.516,0,0,1,81.624-3.02c18.451,18.058,21.609,46.408,7.511,67.409a94.677,94.677,0,0,0-10.418,20.556c-19.651-.7-35.343-7.783-46.662-21.11L89.9,229.179c13.648,16.067,32.018,24.958,54.655,26.54a93.914,93.914,0,0,0-.01,32.5c-18.985,1.143-42.39,7.092-58.693,26.654C74.6,328.39,72.205,342.107,72.108,342.685l15.784,2.63a48.569,48.569,0,0,1,10.254-20.193c11.146-13.376,28.172-20.443,50.612-21.061a94.657,94.657,0,0,0,10.421,20.564c14.1,21,10.939,49.351-7.512,67.409a56.231,56.231,0,0,1-45.331,15.656,55.3,55.3,0,0,1-40.491-24.185,200.6,200.6,0,0,1-5.028-215.092l-13.7-8.263a216.6,216.6,0,0,0,5.422,232.239A71.257,71.257,0,0,0,104.68,423.6a73.931,73.931,0,0,0,7.663.4,72.014,72.014,0,0,0,50.515-20.535c23.961-23.45,28-60.359,9.6-87.761A78.156,78.156,0,0,1,159.135,272c0-1.441.053-2.875.131-4.306l52.565-28.671A8,8,0,0,0,216,232V115.7a31.885,31.885,0,0,0,32,0V232a8,8,0,0,0,5.338,7.544L352.674,274.6a82.208,82.208,0,0,1-1.681,22.437l-92.33-32.583A8,8,0,0,0,248,272V480H216V272a8,8,0,0,0-11.578-7.155l-32,16,7.156,14.31L200,284.944V488a8,8,0,0,0,8,8h48a8,8,0,0,0,8-8V456h40a8,8,0,0,0,8-8V312H296V440H264V283.308l81.922,28.908a78.922,78.922,0,0,1-6.384,11.491c-18.4,27.4-14.356,64.311,9.6,87.762A72.016,72.016,0,0,0,399.657,432a73.946,73.946,0,0,0,7.663-.4,71.259,71.259,0,0,0,52.142-31.214,219.955,219.955,0,0,0,12.217-20.661l-14.2-7.375a203.517,203.517,0,0,1-11.324,19.151,55.3,55.3,0,0,1-40.491,24.185,56.222,56.222,0,0,1-45.331-15.656c-18.451-18.058-21.609-46.408-7.511-67.409a94.657,94.657,0,0,0,10.421-20.564c22.439.618,39.465,7.685,50.611,21.061l12.292-10.244c-16.3-19.562-39.708-25.511-58.693-26.654a93.914,93.914,0,0,0,0-32.448c18.985-1.143,42.39-7.092,58.693-26.654,11.259-13.512,13.649-27.229,13.746-27.807l-15.784-2.63a48.569,48.569,0,0,1-10.254,20.193c-11.146,13.376-28.172,20.443-50.612,21.061a94.657,94.657,0,0,0-10.421-20.564c-14.1-21-10.939-49.351,7.512-67.409a56.242,56.242,0,0,1,45.331-15.656A55.3,55.3,0,0,1,446.155,168.5a200.677,200.677,0,0,1,18.1,189.444ZM280,32a16,16,0,1,1-16,16A16.019,16.019,0,0,1,280,32Zm-48,72a16,16,0,1,1,16-16A16.019,16.019,0,0,1,232,104Zm32,122.34V75.695a31.885,31.885,0,0,0,32,0V216a8,8,0,0,0,5.267,7.519L340.5,237.783a78.412,78.412,0,0,1,8.73,18.636Z"/><path d="M419.542,373.736l13.307,8.885a183.742,183.742,0,0,0,28.109-69.175l-15.736-2.892A167.82,167.82,0,0,1,419.542,373.736Z"/></g></svg>
